<svg width="14" height="14" viewBox="0 0 14 14" fill="none" xmlns="http://www.w3.org/2000/svg">
<path fill-rule="evenodd" clip-rule="evenodd" d="M2.50706 0.851731C2.11653 0.461207 1.48337 0.461207 1.09284 0.851731C0.702317 1.24226 0.702317 1.87542 1.09284 2.26594L1.40214 2.57524C0.0272039 4.27615 0.130306 6.77563 1.71145 8.35677L5.48026 12.1256C6.39115 13.0365 7.868 13.0365 8.77888 12.1256L9.86568 11.0388L11.7527 12.9258C12.1432 13.3163 12.7763 13.3163 13.1669 12.9258C13.5574 12.5352 13.5574 11.9021 13.1669 11.5115L3.54254 1.88722C3.5382 1.8828 3.53383 1.87842 3.52942 1.87409L2.50706 0.851731ZM7.12938 1.65855C8.80789 0.568582 11.0757 0.759579 12.5477 2.23154C14.2391 3.92298 14.2391 6.66534 12.5477 8.35677L12.4571 8.44735C12.0666 8.83787 11.4334 8.83787 11.0429 8.44735C10.6524 8.05683 10.6524 7.42366 11.0429 7.03314L11.1335 6.94256C12.0439 6.03217 12.0439 4.55614 11.1335 3.64575C10.2231 2.73537 8.74707 2.73537 7.83668 3.64575C7.44616 4.03628 6.81299 4.03628 6.42247 3.64575C6.26375 3.48704 6.08918 3.35693 5.90451 3.25441C5.42164 2.98635 5.2475 2.37761 5.51555 1.89474C5.78361 1.41187 6.39236 1.23772 6.87523 1.50578C6.96134 1.55358 7.04612 1.60451 7.12938 1.65855Z" fill="white"/>
</svg>
