<svg width="16" height="18" viewBox="0 0 16 18" fill="none" xmlns="http://www.w3.org/2000/svg">
<path fill-rule="evenodd" clip-rule="evenodd" d="M12.9 0C11.4088 0 10.2 1.20883 10.2 2.7C10.2 2.83574 10.2101 2.96935 10.2296 3.10005L4.36244 6.52254C3.9046 6.16431 3.32755 5.95 2.7 5.95C1.20883 5.95 0 7.15883 0 8.65C0 10.1412 1.20883 11.35 2.7 11.35C3.32755 11.35 3.9046 11.1357 4.36244 10.7775L10.2296 14.1999C10.2101 14.3307 10.2 14.4643 10.2 14.6C10.2 16.0912 11.4088 17.3 12.9 17.3C14.3912 17.3 15.6 16.0912 15.6 14.6C15.6 13.1088 14.3912 11.9 12.9 11.9C12.2724 11.9 11.6954 12.1143 11.2376 12.4725L5.37044 9.05005C5.38991 8.91935 5.4 8.78574 5.4 8.65C5.4 8.51426 5.38991 8.38065 5.37044 8.24995L11.2376 4.82746C11.6954 5.18569 12.2724 5.4 12.9 5.4C14.3912 5.4 15.6 4.19117 15.6 2.7C15.6 1.20883 14.3912 0 12.9 0Z" fill="white"/>
</svg>
